<svg width="18" height="18" viewBox="0 0 18 18" fill="none" xmlns="http://www.w3.org/2000/svg">
<path fill-rule="evenodd" clip-rule="evenodd" d="M9.00004 0.666016C4.39766 0.666016 0.666702 4.39698 0.666702 8.99935C0.666702 13.6017 4.39766 17.3327 9.00004 17.3327C13.6024 17.3327 17.3334 13.6017 17.3334 8.99935C17.3334 4.39698 13.6024 0.666016 9.00004 0.666016ZM11.5082 11.4987C11.7915 11.2162 11.7915 10.7579 11.5082 10.4745L10.0248 8.99119L11.5082 7.50702C11.7915 7.22452 11.7915 6.75785 11.5082 6.47452C11.2248 6.19035 10.7665 6.19035 10.4748 6.47452L8.99984 7.95702L7.5165 6.47452C7.22484 6.19035 6.7665 6.19035 6.48317 6.47452C6.19984 6.75785 6.19984 7.22452 6.48317 7.50702L7.9665 8.99119L6.48317 10.4662C6.19984 10.7579 6.19984 11.2162 6.48317 11.4987C6.62484 11.6404 6.8165 11.7162 6.99984 11.7162C7.1915 11.7162 7.37484 11.6404 7.5165 11.4987L8.99984 10.0245L10.4832 11.4987C10.6248 11.6495 10.8082 11.7162 10.9915 11.7162C11.1832 11.7162 11.3665 11.6404 11.5082 11.4987Z" fill="#728A96"/>
</svg>
