<svg width="14" height="14" viewBox="0 0 14 14" fill="none" xmlns="http://www.w3.org/2000/svg">
<path d="M13.8983 5.78815H7.53496V8.51565H11.1416C10.565 10.334 9.14079 10.9398 7.50579 10.9398C6.87221 10.9406 6.24778 10.7886 5.68548 10.4966C5.12319 10.2046 4.63962 9.78128 4.27581 9.26255C3.912 8.74383 3.67868 8.145 3.59565 7.51688C3.51261 6.88876 3.58232 6.24987 3.79885 5.65443C4.01538 5.05899 4.37234 4.52457 4.83945 4.09651C5.30657 3.66844 5.87004 3.35937 6.48207 3.1955C7.0941 3.03164 7.73663 3.01783 8.35514 3.15524C8.97365 3.29265 9.54988 3.57722 10.035 3.98482L12.0166 2.09732C11.2186 1.36218 10.2532 0.83294 9.2042 0.55554C8.15523 0.278141 7.0544 0.260966 5.99729 0.505506C4.94017 0.750047 3.95872 1.24891 3.13813 1.95879C2.31755 2.66867 1.68263 3.56812 1.2885 4.57903C0.894372 5.58995 0.752942 6.68179 0.876491 7.75976C1.00004 8.83774 1.38483 9.86927 1.99747 10.7648C2.6101 11.6603 3.43205 12.3928 4.39197 12.8986C5.35189 13.4044 6.42076 13.6683 7.50579 13.6673C11.1816 13.6673 14.5058 11.2431 13.8983 5.78815Z" fill="white"/>
</svg>
