<svg width="14" height="12" viewBox="0 0 14 12" fill="none" xmlns="http://www.w3.org/2000/svg">
<path d="M7.38846 10.8867C7.23977 10.9824 7.10842 11.0639 6.99885 11.1305C6.89079 11.0652 6.76155 10.9853 6.61537 10.8917C6.15218 10.5951 5.52344 10.164 4.86171 9.62642C3.51227 8.53021 2.13517 7.07873 1.62881 5.50312C1.00063 3.54141 1.77134 1.49707 3.60996 0.904753L3.61032 0.904637C4.61023 0.581963 5.71767 0.772749 6.54912 1.39823C6.81908 1.60131 7.1915 1.59885 7.45875 1.39221C8.22963 0.796169 9.38275 0.583791 10.3839 0.904916C12.2236 1.49792 12.9976 3.54352 12.3703 5.50363L12.3692 5.5072C11.8815 7.05808 10.5079 8.50793 9.15155 9.61123C8.48729 10.1516 7.85483 10.5868 7.38846 10.8867Z"  stroke-width="1.5" stroke-linecap="round" stroke-linejoin="round"/>
</svg>
