<svg width="18" height="16" viewBox="0 0 24 24" fill="none" xmlns="http://www.w3.org/2000/svg">
<path d="M7.13384 9.9724C6.65467 9.49406 6.36301 8.84406 6.36301 8.1149C6.36301 6.65406 7.53967 5.47656 8.99967 5.47656C9.72217 5.47656 10.3872 5.76906 10.858 6.2474" stroke="#728A96" stroke-width="1.5" stroke-linecap="round" stroke-linejoin="round"/>
<path d="M11.5873 8.58203C11.394 9.65703 10.5473 10.5054 9.47317 10.7004" stroke="#728A96" stroke-width="1.5" stroke-linecap="round" stroke-linejoin="round"/>
<path d="M4.5455 12.559C3.223 11.5207 2.103 10.004 1.29134 8.11318C2.11134 6.21401 3.23884 4.68901 4.56967 3.64234C5.89217 2.59568 7.418 2.02734 8.99967 2.02734C10.5905 2.02734 12.1155 2.60401 13.4463 3.65818" stroke="#728A96" stroke-width="1.5" stroke-linecap="round" stroke-linejoin="round"/>
<path d="M15.2063 5.49219C15.7797 6.25385 16.2838 7.13302 16.708 8.11385C15.0688 11.9114 12.1722 14.1989 8.99967 14.1989C8.2805 14.1989 7.57134 14.0822 6.88967 13.8547" stroke="#728A96" stroke-width="1.5" stroke-linecap="round" stroke-linejoin="round"/>
<path d="M15.5725 1.54102L2.42751 14.686" stroke="#728A96" stroke-width="1.5" stroke-linecap="round" stroke-linejoin="round"/>
</svg>
