<svg width="15" height="14" viewBox="0 0 15 14" fill="none" xmlns="http://www.w3.org/2000/svg">
<path fill-rule="evenodd" clip-rule="evenodd" d="M14.1665 7.00033C14.1665 10.6797 11.1798 13.667 7.49984 13.667C3.81317 13.667 0.833172 10.6797 0.833172 7.00033C0.833172 3.31966 3.81317 0.33366 7.49984 0.33366C11.1798 0.33366 14.1665 3.31966 14.1665 7.00033ZM8.0865 9.52699C8.0865 9.84633 7.81984 10.1137 7.49984 10.1137C7.17984 10.1137 6.91984 9.84633 6.91984 9.52699L6.91984 6.58033C6.91984 6.25966 7.17984 6.00033 7.49984 6.00033C7.81984 6.00033 8.0865 6.25966 8.0865 6.58033L8.0865 9.52699ZM7.49317 3.87966C7.81984 3.87966 8.07984 4.14633 8.07984 4.46633C8.07984 4.78633 7.81984 5.04633 7.49984 5.04633C7.17317 5.04633 6.91317 4.78633 6.91317 4.46633C6.91317 4.14633 7.17317 3.87966 7.49317 3.87966Z" />
</svg>
