<svg width="14" height="14" viewBox="0 0 14 14" fill="none" xmlns="http://www.w3.org/2000/svg">
<path fill-rule="evenodd" clip-rule="evenodd" d="M13.6665 7.00033C13.6665 10.6797 10.6798 13.667 6.99984 13.667C3.31317 13.667 0.333172 10.6797 0.333172 7.00033C0.333172 3.31966 3.31317 0.33366 6.99984 0.33366C10.6798 0.33366 13.6665 3.31966 13.6665 7.00033ZM7.5865 9.52699C7.5865 9.84633 7.31984 10.1137 6.99984 10.1137C6.67984 10.1137 6.41984 9.84633 6.41984 9.52699L6.41984 6.58033C6.41984 6.25966 6.67984 6.00033 6.99984 6.00033C7.31984 6.00033 7.5865 6.25966 7.5865 6.58033L7.5865 9.52699ZM6.99317 3.87966C7.31984 3.87966 7.57984 4.14633 7.57984 4.46633C7.57984 4.78633 7.31984 5.04633 6.99984 5.04633C6.67317 5.04633 6.41317 4.78633 6.41317 4.46633C6.41317 4.14633 6.67317 3.87966 6.99317 3.87966Z" fill="#F2C94C"/>
</svg>
