<svg width="8" height="14" viewBox="0 0 8 14" fill="none" xmlns="http://www.w3.org/2000/svg">
<path d="M3.49992 8.5H2.96312C1.55468 8.5 0.850459 8.5 0.555532 8.03846C0.260605 7.57692 0.556463 6.93786 1.14818 5.65975L3.04619 1.56006C3.42037 0.751818 3.60747 0.347696 3.80369 0.390915C3.99992 0.434134 3.99992 0.879465 3.99992 1.77013V5C3.99992 5.2357 3.99992 5.35355 4.07314 5.42678C4.14637 5.5 4.26422 5.5 4.49992 5.5H5.03672C6.44516 5.5 7.14938 5.5 7.44431 5.96154C7.73923 6.42308 7.44337 7.06214 6.85166 8.34025L4.95365 12.4399C4.57946 13.2482 4.39237 13.6523 4.19614 13.6091C3.99992 13.5659 3.99992 13.1205 3.99992 12.2299V9C3.99992 8.7643 3.99992 8.64645 3.9267 8.57322C3.85347 8.5 3.73562 8.5 3.49992 8.5Z" fill="#728A96"/>
</svg>
