<svg width="133" height="24" viewBox="0 0 133 24" fill="none" xmlns="http://www.w3.org/2000/svg">
<path d="M8.22185 4.95438C8.68762 4.67012 8.93063 3.79701 9.4369 3.59396C10.6317 3.10664 13.4668 4.38585 14.7224 4.44676C15.8159 4.50768 16.5247 3.91884 17.6182 3.79701C17.9828 3.7564 18.3473 3.65487 18.6915 3.55335C19.4408 3.37061 20.2104 3.24878 20.9799 3.20817C21.2836 3.18786 21.6077 3.18786 21.9114 3.26908C23.086 3.61426 23.8353 5.40109 24.2605 6.43664C24.3213 6.57877 24.3618 6.72091 24.382 6.86304H25.4756C27.3589 6.86304 28.898 5.31987 28.898 3.43152C28.898 1.54317 27.3589 0 25.4756 0H3.42239C1.53907 0 0 1.54317 0 3.43152C0 5.31987 1.53907 6.86304 3.42239 6.86304H6.0145C6.68278 6.03054 7.22955 5.56353 8.22185 4.95438Z" fill="white"/>
<path d="M21.9923 9.09679C21.9721 9.09679 21.243 10.8836 21.243 10.8836L19.2787 10.2542L18.7319 12.041L16.9093 11.4725C16.8688 11.4928 16.8283 11.5334 16.7878 11.5537C16.1398 11.9192 15.4715 12.305 14.8033 12.7111C15.4918 13.3202 16.1803 13.5842 17.0308 13.4014C17.9016 13.2187 18.7927 13.1375 19.6635 12.9953C19.6837 12.9953 19.6837 12.9953 19.704 12.975C19.8457 12.9547 19.9672 12.9547 20.109 12.9344L20.3925 12.2237L21.5063 12.6704C21.7898 12.5892 22.0733 12.508 22.3366 12.3862C22.4176 12.3456 22.5188 12.305 22.5998 12.2643L22.9238 11.4318L23.8959 11.8176C24.1591 11.7973 24.4224 11.7567 24.5642 11.574C24.9084 11.6958 25.1514 11.9192 25.2729 12.2643C25.7387 13.442 25.2527 14.8025 24.1794 15.4116H25.5565C27.4398 15.4116 28.9789 13.8684 28.9789 11.9801C28.9789 10.0917 27.4398 8.54856 25.5565 8.54856H23.9769L23.6934 9.62472L21.9923 9.09679Z" fill="white"/>
<path d="M5.04154 9.68565C5.02129 9.32016 5.06179 8.93437 5.14279 8.58918H3.52272C1.63939 8.58918 0.100329 10.1324 0.100329 12.0207C0.100329 13.9091 1.63939 15.4522 3.52272 15.4522H5.14279L5.02129 9.68565H5.04154Z" fill="white"/>
<path d="M25.5776 17.137H20.5554C19.0568 17.8273 17.538 18.4974 16.0395 19.1674C15.6749 19.3299 15.3104 19.4314 14.9459 19.472L16.5255 23.9797H25.5776C27.4609 23.9797 29 22.4365 29 20.5482C29 18.6801 27.4609 17.137 25.5776 17.137Z" fill="white"/>
<path d="M3.52272 17.137C1.63939 17.137 0.100329 18.6801 0.100329 20.5685C0.100329 22.4568 1.63939 24 3.52272 24H5.3453L5.18329 17.137H3.52272Z" fill="white"/>
<path d="M50.5625 7V18.6364H48.6875L43.2045 10.7102H43.108V18.6364H41V7H42.8864L48.3636 14.9318H48.4659V7H50.5625Z" fill="white"/>
<path d="M56.5753 18.8068C55.723 18.8068 54.9844 18.6193 54.3594 18.2443C53.7344 17.8693 53.2495 17.3447 52.9048 16.6705C52.5639 15.9962 52.3935 15.2083 52.3935 14.3068C52.3935 13.4053 52.5639 12.6155 52.9048 11.9375C53.2495 11.2595 53.7344 10.733 54.3594 10.358C54.9844 9.98295 55.723 9.79545 56.5753 9.79545C57.4276 9.79545 58.1662 9.98295 58.7912 10.358C59.4162 10.733 59.8991 11.2595 60.2401 11.9375C60.5848 12.6155 60.7571 13.4053 60.7571 14.3068C60.7571 15.2083 60.5848 15.9962 60.2401 16.6705C59.8991 17.3447 59.4162 17.8693 58.7912 18.2443C58.1662 18.6193 57.4276 18.8068 56.5753 18.8068ZM56.5866 17.1591C57.0488 17.1591 57.4351 17.0322 57.7457 16.7784C58.0563 16.5208 58.2874 16.1761 58.4389 15.7443C58.5942 15.3125 58.6719 14.8314 58.6719 14.3011C58.6719 13.767 58.5942 13.2841 58.4389 12.8523C58.2874 12.4167 58.0563 12.0701 57.7457 11.8125C57.4351 11.5549 57.0488 11.4261 56.5866 11.4261C56.1132 11.4261 55.7192 11.5549 55.4048 11.8125C55.0942 12.0701 54.8613 12.4167 54.706 12.8523C54.5545 13.2841 54.4787 13.767 54.4787 14.3011C54.4787 14.8314 54.5545 15.3125 54.706 15.7443C54.8613 16.1761 55.0942 16.5208 55.4048 16.7784C55.7192 17.0322 56.1132 17.1591 56.5866 17.1591Z" fill="white"/>
<path d="M65.7415 18.7898C65.0559 18.7898 64.4422 18.6136 63.9006 18.2614C63.3589 17.9091 62.9309 17.3977 62.6165 16.7273C62.3021 16.0568 62.1449 15.2424 62.1449 14.2841C62.1449 13.3144 62.304 12.4962 62.6222 11.8295C62.9441 11.1591 63.3778 10.6534 63.9233 10.3125C64.4688 9.9678 65.0767 9.79545 65.7472 9.79545C66.2585 9.79545 66.679 9.88258 67.0085 10.0568C67.3381 10.2273 67.5994 10.4337 67.7926 10.6761C67.9858 10.9148 68.1354 11.1402 68.2415 11.3523H68.3267V7H70.3892V18.6364H68.3665V17.2614H68.2415C68.1354 17.4735 67.982 17.6989 67.7812 17.9375C67.5805 18.1723 67.3153 18.3731 66.9858 18.5398C66.6562 18.7064 66.2415 18.7898 65.7415 18.7898ZM66.3153 17.1023C66.7509 17.1023 67.1222 16.9848 67.429 16.75C67.7358 16.5114 67.9688 16.1799 68.1278 15.7557C68.2869 15.3314 68.3665 14.8371 68.3665 14.2727C68.3665 13.7083 68.2869 13.2178 68.1278 12.8011C67.9725 12.3845 67.7415 12.0606 67.4347 11.8295C67.1316 11.5985 66.7585 11.483 66.3153 11.483C65.857 11.483 65.4744 11.6023 65.1676 11.8409C64.8608 12.0795 64.6297 12.4091 64.4744 12.8295C64.3191 13.25 64.2415 13.7311 64.2415 14.2727C64.2415 14.8182 64.3191 15.3049 64.4744 15.733C64.6335 16.1572 64.8665 16.4924 65.1733 16.7386C65.4839 16.9811 65.8646 17.1023 66.3153 17.1023Z" fill="white"/>
<path d="M76.4446 18.8068C75.5696 18.8068 74.8139 18.625 74.1776 18.2614C73.545 17.8939 73.0582 17.375 72.7173 16.7045C72.3764 16.0303 72.206 15.2367 72.206 14.3239C72.206 13.4261 72.3764 12.6383 72.7173 11.9602C73.062 11.2784 73.5431 10.7481 74.1605 10.3693C74.7779 9.98674 75.5033 9.79545 76.3366 9.79545C76.8745 9.79545 77.3821 9.88258 77.8594 10.0568C78.3404 10.2273 78.7647 10.4924 79.1321 10.8523C79.5033 11.2121 79.795 11.6705 80.0071 12.2273C80.2192 12.7803 80.3253 13.4394 80.3253 14.2045V14.8352H73.1719V13.4489H78.3537C78.3499 13.0549 78.2647 12.7045 78.098 12.3977C77.9313 12.0871 77.6984 11.8428 77.3991 11.6648C77.1037 11.4867 76.759 11.3977 76.3651 11.3977C75.9446 11.3977 75.5753 11.5 75.2571 11.7045C74.9389 11.9053 74.6908 12.1705 74.5128 12.5C74.3385 12.8258 74.2495 13.1837 74.2457 13.5739V14.7841C74.2457 15.2917 74.3385 15.7273 74.5241 16.0909C74.7098 16.4508 74.9692 16.7273 75.3026 16.9205C75.6359 17.1098 76.026 17.2045 76.473 17.2045C76.7723 17.2045 77.0431 17.1629 77.2855 17.0795C77.5279 16.9924 77.7382 16.8655 77.9162 16.6989C78.0942 16.5322 78.2287 16.3258 78.3196 16.0795L80.2401 16.2955C80.1188 16.803 79.8878 17.2462 79.5469 17.625C79.2098 18 78.7779 18.2917 78.2514 18.5C77.7249 18.7045 77.1226 18.8068 76.4446 18.8068Z" fill="white"/>
<path d="M82.1562 18.6364V7H86.5199C87.4138 7 88.1638 7.1553 88.7699 7.46591C89.3797 7.77652 89.84 8.21212 90.1506 8.77273C90.465 9.32955 90.6222 9.97917 90.6222 10.7216C90.6222 11.4678 90.4631 12.1155 90.1449 12.6648C89.8305 13.2102 89.3665 13.6326 88.7528 13.9318C88.1392 14.2273 87.3854 14.375 86.4915 14.375H83.3835V12.625H86.2074C86.7301 12.625 87.1581 12.553 87.4915 12.4091C87.8248 12.2614 88.071 12.0473 88.2301 11.767C88.393 11.483 88.4744 11.1345 88.4744 10.7216C88.4744 10.3087 88.393 9.95644 88.2301 9.66477C88.0672 9.36932 87.8191 9.14583 87.4858 8.99432C87.1525 8.83902 86.7225 8.76136 86.196 8.76136H84.2642V18.6364H82.1562ZM88.1676 13.3636L91.0483 18.6364H88.696L85.8665 13.3636H88.1676Z" fill="white"/>
<path d="M94.983 18.8125C94.4299 18.8125 93.9318 18.714 93.4886 18.517C93.0492 18.3163 92.7008 18.0208 92.4432 17.6307C92.1894 17.2405 92.0625 16.7595 92.0625 16.1875C92.0625 15.6951 92.1534 15.2879 92.3352 14.9659C92.517 14.6439 92.7652 14.3864 93.0795 14.1932C93.3939 14 93.7481 13.8542 94.142 13.7557C94.5398 13.6534 94.9508 13.5795 95.375 13.5341C95.8864 13.4811 96.3011 13.4337 96.6193 13.392C96.9375 13.3466 97.1686 13.2784 97.3125 13.1875C97.4602 13.0928 97.5341 12.947 97.5341 12.75V12.7159C97.5341 12.2879 97.4072 11.9564 97.1534 11.7216C96.8996 11.4867 96.5341 11.3693 96.0568 11.3693C95.553 11.3693 95.1534 11.4792 94.858 11.6989C94.5663 11.9186 94.3693 12.178 94.267 12.4773L92.3466 12.2045C92.4981 11.6742 92.7481 11.2311 93.0966 10.875C93.4451 10.5152 93.8712 10.2462 94.375 10.0682C94.8788 9.88636 95.4356 9.79545 96.0455 9.79545C96.4659 9.79545 96.8845 9.8447 97.3011 9.94318C97.7178 10.0417 98.0985 10.2045 98.4432 10.4318C98.7879 10.6553 99.0644 10.9602 99.2727 11.3466C99.4848 11.733 99.5909 12.2159 99.5909 12.7955V18.6364H97.6136V17.4375H97.5455C97.4205 17.6799 97.2443 17.9072 97.017 18.1193C96.7936 18.3277 96.5114 18.4962 96.1705 18.625C95.8333 18.75 95.4375 18.8125 94.983 18.8125ZM95.517 17.3011C95.9299 17.3011 96.2879 17.2197 96.5909 17.0568C96.8939 16.8902 97.1269 16.6705 97.2898 16.3977C97.4564 16.125 97.5398 15.8277 97.5398 15.5057V14.4773C97.4754 14.5303 97.3655 14.5795 97.2102 14.625C97.0587 14.6705 96.8883 14.7102 96.6989 14.7443C96.5095 14.7784 96.322 14.8087 96.1364 14.8352C95.9508 14.8617 95.7898 14.8845 95.6534 14.9034C95.3466 14.9451 95.072 15.0133 94.8295 15.108C94.5871 15.2027 94.3958 15.3352 94.2557 15.5057C94.1155 15.6723 94.0455 15.8883 94.0455 16.1534C94.0455 16.5322 94.1837 16.8182 94.4602 17.0114C94.7367 17.2045 95.089 17.3011 95.517 17.3011Z" fill="white"/>
<path d="M101.659 21.9091V9.90909H103.682V11.3523H103.801C103.907 11.1402 104.057 10.9148 104.25 10.6761C104.443 10.4337 104.705 10.2273 105.034 10.0568C105.364 9.88258 105.784 9.79545 106.295 9.79545C106.97 9.79545 107.578 9.9678 108.119 10.3125C108.665 10.6534 109.097 11.1591 109.415 11.8295C109.737 12.4962 109.898 13.3144 109.898 14.2841C109.898 15.2424 109.741 16.0568 109.426 16.7273C109.112 17.3977 108.684 17.9091 108.142 18.2614C107.6 18.6136 106.987 18.7898 106.301 18.7898C105.801 18.7898 105.386 18.7064 105.057 18.5398C104.727 18.3731 104.462 18.1723 104.261 17.9375C104.064 17.6989 103.911 17.4735 103.801 17.2614H103.716V21.9091H101.659ZM103.676 14.2727C103.676 14.8371 103.756 15.3314 103.915 15.7557C104.078 16.1799 104.311 16.5114 104.614 16.75C104.92 16.9848 105.292 17.1023 105.727 17.1023C106.182 17.1023 106.562 16.9811 106.869 16.7386C107.176 16.4924 107.407 16.1572 107.562 15.733C107.722 15.3049 107.801 14.8182 107.801 14.2727C107.801 13.7311 107.723 13.25 107.568 12.8295C107.413 12.4091 107.182 12.0795 106.875 11.8409C106.568 11.6023 106.186 11.483 105.727 11.483C105.288 11.483 104.915 11.5985 104.608 11.8295C104.301 12.0606 104.068 12.3845 103.909 12.8011C103.754 13.2178 103.676 13.7083 103.676 14.2727Z" fill="white"/>
<path d="M116.017 9.90909V11.5H111V9.90909H116.017ZM112.239 7.81818H114.295V16.0114C114.295 16.2879 114.337 16.5 114.42 16.6477C114.508 16.7917 114.621 16.8902 114.761 16.9432C114.902 16.9962 115.057 17.0227 115.227 17.0227C115.356 17.0227 115.473 17.0133 115.58 16.9943C115.689 16.9754 115.773 16.9583 115.83 16.9432L116.176 18.5511C116.066 18.589 115.909 18.6307 115.705 18.6761C115.504 18.7216 115.258 18.7481 114.966 18.7557C114.451 18.7708 113.987 18.6932 113.574 18.5227C113.161 18.3485 112.833 18.0795 112.591 17.7159C112.352 17.3523 112.235 16.8977 112.239 16.3523V7.81818Z" fill="white"/>
<path d="M121.45 18.8068C120.598 18.8068 119.859 18.6193 119.234 18.2443C118.609 17.8693 118.125 17.3447 117.78 16.6705C117.439 15.9962 117.268 15.2083 117.268 14.3068C117.268 13.4053 117.439 12.6155 117.78 11.9375C118.125 11.2595 118.609 10.733 119.234 10.358C119.859 9.98295 120.598 9.79545 121.45 9.79545C122.303 9.79545 123.041 9.98295 123.666 10.358C124.291 10.733 124.774 11.2595 125.115 11.9375C125.46 12.6155 125.632 13.4053 125.632 14.3068C125.632 15.2083 125.46 15.9962 125.115 16.6705C124.774 17.3447 124.291 17.8693 123.666 18.2443C123.041 18.6193 122.303 18.8068 121.45 18.8068ZM121.462 17.1591C121.924 17.1591 122.31 17.0322 122.621 16.7784C122.931 16.5208 123.162 16.1761 123.314 15.7443C123.469 15.3125 123.547 14.8314 123.547 14.3011C123.547 13.767 123.469 13.2841 123.314 12.8523C123.162 12.4167 122.931 12.0701 122.621 11.8125C122.31 11.5549 121.924 11.4261 121.462 11.4261C120.988 11.4261 120.594 11.5549 120.28 11.8125C119.969 12.0701 119.736 12.4167 119.581 12.8523C119.429 13.2841 119.354 13.767 119.354 14.3011C119.354 14.8314 119.429 15.3125 119.581 15.7443C119.736 16.1761 119.969 16.5208 120.28 16.7784C120.594 17.0322 120.988 17.1591 121.462 17.1591Z" fill="white"/>
<path d="M127.378 18.6364V9.90909H129.372V11.3636H129.463C129.622 10.8598 129.895 10.4716 130.281 10.1989C130.671 9.92235 131.116 9.78409 131.616 9.78409C131.73 9.78409 131.857 9.78977 131.997 9.80114C132.141 9.80871 132.26 9.82197 132.355 9.84091V11.733C132.268 11.7027 132.13 11.6761 131.94 11.6534C131.755 11.6269 131.575 11.6136 131.401 11.6136C131.026 11.6136 130.688 11.6951 130.389 11.858C130.094 12.017 129.861 12.2386 129.69 12.5227C129.52 12.8068 129.435 13.1345 129.435 13.5057V18.6364H127.378Z" fill="white"/>
</svg>
