<svg width="18" height="18" viewBox="0 0 18 18" fill="none" xmlns="http://www.w3.org/2000/svg">
<path fill-rule="evenodd" clip-rule="evenodd" d="M8.99984 0.666504C4.39746 0.666504 0.666504 4.39746 0.666504 8.99984C0.666504 13.6022 4.39746 17.3332 8.99984 17.3332C13.6022 17.3332 17.3332 13.6022 17.3332 8.99984C17.3332 4.39746 13.6022 0.666504 8.99984 0.666504ZM11.508 11.4992C11.7913 11.2167 11.7913 10.7583 11.508 10.475L10.0246 8.99168L11.508 7.50751C11.7913 7.22501 11.7913 6.75834 11.508 6.47501C11.2246 6.19084 10.7663 6.19084 10.4746 6.47501L8.99964 7.95751L7.51631 6.47501C7.22464 6.19084 6.76631 6.19084 6.48297 6.47501C6.19964 6.75834 6.19964 7.22501 6.48297 7.50751L7.96631 8.99168L6.48297 10.4667C6.19964 10.7583 6.19964 11.2167 6.48297 11.4992C6.62464 11.6408 6.81631 11.7167 6.99964 11.7167C7.19131 11.7167 7.37464 11.6408 7.51631 11.4992L8.99964 10.025L10.483 11.4992C10.6246 11.65 10.808 11.7167 10.9913 11.7167C11.183 11.7167 11.3663 11.6408 11.508 11.4992Z" fill="#728A96"/>
<path fill-rule="evenodd" clip-rule="evenodd" d="M8.99984 0.666504C4.39746 0.666504 0.666504 4.39746 0.666504 8.99984C0.666504 13.6022 4.39746 17.3332 8.99984 17.3332C13.6022 17.3332 17.3332 13.6022 17.3332 8.99984C17.3332 4.39746 13.6022 0.666504 8.99984 0.666504ZM11.508 11.4992C11.7913 11.2167 11.7913 10.7583 11.508 10.475L10.0246 8.99168L11.508 7.50751C11.7913 7.22501 11.7913 6.75834 11.508 6.47501C11.2246 6.19084 10.7663 6.19084 10.4746 6.47501L8.99964 7.95751L7.51631 6.47501C7.22464 6.19084 6.76631 6.19084 6.48297 6.47501C6.19964 6.75834 6.19964 7.22501 6.48297 7.50751L7.96631 8.99168L6.48297 10.4667C6.19964 10.7583 6.19964 11.2167 6.48297 11.4992C6.62464 11.6408 6.81631 11.7167 6.99964 11.7167C7.19131 11.7167 7.37464 11.6408 7.51631 11.4992L8.99964 10.025L10.483 11.4992C10.6246 11.65 10.808 11.7167 10.9913 11.7167C11.183 11.7167 11.3663 11.6408 11.508 11.4992Z" fill="white" fill-opacity="0.2"/>
</svg>
